<mxfile host="app.diagrams.net" agent="Mozilla/5.0 (Windows NT 10.0; Win64; x64) AppleWebKit/537.36 (KHTML, like Gecko) Chrome/129.0.0.0 Safari/537.36" version="24.7.17">
  <diagram name="Page-1" id="rMJYnQQxPuvbbzcktf9t">
    <mxGraphModel dx="1064" dy="538" grid="1" gridSize="10" guides="1" tooltips="1" connect="1" arrows="1" fold="1" page="1" pageScale="1" pageWidth="827" pageHeight="1169" math="0" shadow="0">
      <root>
        <mxCell id="0" />
        <mxCell id="1" parent="0" />
        <mxCell id="DWIReKCvQgX21M10_pHc-6" style="edgeStyle=orthogonalEdgeStyle;rounded=0;orthogonalLoop=1;jettySize=auto;html=1;exitX=0.5;exitY=1;exitDx=0;exitDy=0;entryX=0.5;entryY=0;entryDx=0;entryDy=0;" edge="1" parent="1" source="DWIReKCvQgX21M10_pHc-1" target="DWIReKCvQgX21M10_pHc-4">
          <mxGeometry relative="1" as="geometry" />
        </mxCell>
        <mxCell id="DWIReKCvQgX21M10_pHc-1" value="drm_do_get_edid" style="text;whiteSpace=wrap;html=1;" vertex="1" parent="1">
          <mxGeometry x="420" y="140" width="100" height="30" as="geometry" />
        </mxCell>
        <mxCell id="DWIReKCvQgX21M10_pHc-5" style="edgeStyle=orthogonalEdgeStyle;rounded=0;orthogonalLoop=1;jettySize=auto;html=1;exitX=0.5;exitY=1;exitDx=0;exitDy=0;entryX=0.5;entryY=0;entryDx=0;entryDy=0;" edge="1" parent="1" source="DWIReKCvQgX21M10_pHc-2" target="DWIReKCvQgX21M10_pHc-4">
          <mxGeometry relative="1" as="geometry" />
        </mxCell>
        <mxCell id="DWIReKCvQgX21M10_pHc-2" value="drm_get_edid" style="text;whiteSpace=wrap;html=1;" vertex="1" parent="1">
          <mxGeometry x="300" y="140" width="80" height="30" as="geometry" />
        </mxCell>
        <mxCell id="DWIReKCvQgX21M10_pHc-10" style="edgeStyle=orthogonalEdgeStyle;rounded=0;orthogonalLoop=1;jettySize=auto;html=1;exitX=0.5;exitY=1;exitDx=0;exitDy=0;entryX=0.5;entryY=0;entryDx=0;entryDy=0;" edge="1" parent="1" source="DWIReKCvQgX21M10_pHc-3" target="DWIReKCvQgX21M10_pHc-4">
          <mxGeometry relative="1" as="geometry" />
        </mxCell>
        <mxCell id="DWIReKCvQgX21M10_pHc-3" value="drm_edid_read_custom" style="text;whiteSpace=wrap;html=1;" vertex="1" parent="1">
          <mxGeometry x="560" y="140" width="130" height="30" as="geometry" />
        </mxCell>
        <mxCell id="DWIReKCvQgX21M10_pHc-18" style="edgeStyle=orthogonalEdgeStyle;rounded=0;orthogonalLoop=1;jettySize=auto;html=1;exitX=0.5;exitY=1;exitDx=0;exitDy=0;entryX=0.5;entryY=0;entryDx=0;entryDy=0;" edge="1" parent="1" source="DWIReKCvQgX21M10_pHc-4" target="DWIReKCvQgX21M10_pHc-13">
          <mxGeometry relative="1" as="geometry" />
        </mxCell>
        <mxCell id="DWIReKCvQgX21M10_pHc-20" style="edgeStyle=orthogonalEdgeStyle;rounded=0;orthogonalLoop=1;jettySize=auto;html=1;exitX=0.5;exitY=1;exitDx=0;exitDy=0;entryX=0.5;entryY=0;entryDx=0;entryDy=0;" edge="1" parent="1" source="DWIReKCvQgX21M10_pHc-4" target="DWIReKCvQgX21M10_pHc-14">
          <mxGeometry relative="1" as="geometry" />
        </mxCell>
        <mxCell id="DWIReKCvQgX21M10_pHc-4" value="_drm_do_get_edid" style="text;whiteSpace=wrap;html=1;" vertex="1" parent="1">
          <mxGeometry x="415" y="230" width="110" height="30" as="geometry" />
        </mxCell>
        <mxCell id="DWIReKCvQgX21M10_pHc-12" style="edgeStyle=orthogonalEdgeStyle;rounded=0;orthogonalLoop=1;jettySize=auto;html=1;exitX=0.5;exitY=1;exitDx=0;exitDy=0;entryX=0.5;entryY=0;entryDx=0;entryDy=0;" edge="1" parent="1" source="DWIReKCvQgX21M10_pHc-11" target="DWIReKCvQgX21M10_pHc-3">
          <mxGeometry relative="1" as="geometry" />
        </mxCell>
        <mxCell id="DWIReKCvQgX21M10_pHc-11" value="drm_edid_read_ddc" style="text;whiteSpace=wrap;html=1;" vertex="1" parent="1">
          <mxGeometry x="565" y="90" width="120" height="30" as="geometry" />
        </mxCell>
        <mxCell id="DWIReKCvQgX21M10_pHc-23" style="edgeStyle=orthogonalEdgeStyle;rounded=0;orthogonalLoop=1;jettySize=auto;html=1;exitX=0.5;exitY=1;exitDx=0;exitDy=0;entryX=0.5;entryY=0;entryDx=0;entryDy=0;" edge="1" parent="1" source="DWIReKCvQgX21M10_pHc-13" target="DWIReKCvQgX21M10_pHc-22">
          <mxGeometry relative="1" as="geometry" />
        </mxCell>
        <mxCell id="DWIReKCvQgX21M10_pHc-13" value="drm_do_probe_ddc_edid" style="text;whiteSpace=wrap;html=1;" vertex="1" parent="1">
          <mxGeometry x="270" y="300" width="140" height="30" as="geometry" />
        </mxCell>
        <mxCell id="DWIReKCvQgX21M10_pHc-14" value="&lt;font color=&quot;#000000&quot;&gt;read_block&lt;/font&gt;" style="text;whiteSpace=wrap;html=1;fontColor=#0000FF;" vertex="1" parent="1">
          <mxGeometry x="435" y="300" width="70" height="30" as="geometry" />
        </mxCell>
        <mxCell id="DWIReKCvQgX21M10_pHc-17" style="edgeStyle=orthogonalEdgeStyle;rounded=0;orthogonalLoop=1;jettySize=auto;html=1;exitX=0.5;exitY=1;exitDx=0;exitDy=0;entryX=0.5;entryY=0;entryDx=0;entryDy=0;" edge="1" parent="1" source="DWIReKCvQgX21M10_pHc-16" target="DWIReKCvQgX21M10_pHc-11">
          <mxGeometry relative="1" as="geometry" />
        </mxCell>
        <mxCell id="DWIReKCvQgX21M10_pHc-16" value="drm_edid_read" style="text;whiteSpace=wrap;html=1;" vertex="1" parent="1">
          <mxGeometry x="580" y="50" width="90" height="30" as="geometry" />
        </mxCell>
        <mxCell id="DWIReKCvQgX21M10_pHc-19" value="" style="endArrow=none;dashed=1;html=1;dashPattern=1 3;strokeWidth=2;rounded=0;" edge="1" parent="1">
          <mxGeometry width="50" height="50" relative="1" as="geometry">
            <mxPoint x="340" y="280" as="sourcePoint" />
            <mxPoint x="340" y="200" as="targetPoint" />
          </mxGeometry>
        </mxCell>
        <mxCell id="DWIReKCvQgX21M10_pHc-21" value="" style="endArrow=none;dashed=1;html=1;dashPattern=1 3;strokeWidth=2;rounded=0;entryX=0.5;entryY=1;entryDx=0;entryDy=0;" edge="1" parent="1" target="DWIReKCvQgX21M10_pHc-3">
          <mxGeometry width="50" height="50" relative="1" as="geometry">
            <mxPoint x="340" y="280" as="sourcePoint" />
            <mxPoint x="630" y="200" as="targetPoint" />
            <Array as="points">
              <mxPoint x="590" y="260" />
            </Array>
          </mxGeometry>
        </mxCell>
        <mxCell id="DWIReKCvQgX21M10_pHc-22" value="i2c_transfer" style="text;whiteSpace=wrap;html=1;" vertex="1" parent="1">
          <mxGeometry x="305" y="350" width="70" height="30" as="geometry" />
        </mxCell>
      </root>
    </mxGraphModel>
  </diagram>
</mxfile>
